<svg width="23" height="23" xmlns="http://www.w3.org/2000/svg" viewBox="0 0 23 23"><path fill="currentColor" d="M0,10.3h10.3V0H0v10.3ZM9,5.99c-3.04-.56-4.19-3.32-4.58-4.69h4.58v4.69ZM1.3,6.65c1.06.5,1.94,1.32,2.5,2.35H1.3v-2.35ZM1.45,5.29l-.15-.05V1.3h1.79c.37,1.4,1.77,5.37,5.91,6v1.7h-3.78c-.8-2.58-3.74-3.69-3.77-3.71Z"/><path fill="currentColor" d="M12,0v10.3h10.3V0h-10.3ZM21,8.3v.7h-7.7v-2.7h2.7v2h5ZM18,4.3v.7h-4.7v-1.7h2.7v1h2ZM17.3,3v-1.7h1.7v1.7h-1.7ZM17.3,7v-.7h2v-2h1V1.3h.7v5.7h-3.7ZM13.3,2v-.7h2.7v.7h-2.7Z"/><path fill="currentColor" d="M12,22.3h10.3v-10.3h-10.3v10.3ZM21,16.3v4.7h-1.7v-4.7h1.7ZM18,19.3v1.7h-4.7v-4.7h4.7v1.7h-2v1.3h2ZM21,13.3v1.7h-7.7v-1.7h7.7Z"/><path fill="currentColor" d="M0,22.3h10.3v-10.3H0v10.3ZM7.44,16.51c-.11-.11-.22-.23-.34-.34-.54-.71-1.39-1.12-2.26-1.12-.02,0-.04,0-.06,0-.98-.13-1.96.3-2.53,1.11-.16.23-.17.53-.19.84-.02.36-.04.77-.29,1.18-.14.08-.29.13-.45.15v-5.01h7.7v3.67c-.18.04-.36.09-.54.14-.31.09-.49-.07-1.02-.6ZM1.3,19.67c.43-.06.84-.19,1.23-.38l.05-.04c.37-.42.59-.94.64-1.5.12-1.15.3-1.45,1.46-1.45h.05c.69-.04,1.33.33,1.66.93l.03.04c1,.87,1.6,1.35,2.43,1.08.05-.01.1-.03.15-.04v2.69H1.3v-1.33Z"/></svg>