<svg width="24" height="24" viewBox="0 0 24 24" fill="none" xmlns="http://www.w3.org/2000/svg">
<path fill-rule="evenodd" clip-rule="evenodd" d="M23 13H13V23H23V13ZM14 22V17H19V19H17V20H19V22H14ZM22 22H20V17H22V22ZM22 16H14V14H22V16ZM11 1H1V11H11V1ZM10.481 8.085L10.381 8.077C10.248 8.067 10.129 8.038 10 8.021V10H5.956C5.975 10.067 5.999 10.13 6.014 10.2H4.981C4.958 10.129 4.919 10.069 4.892 10H2V7.266C1.96425 7.2501 1.92824 7.23476 1.892 7.22L1.799 7.185L1.633 6.056L2 6.194V2H4.053C4.01752 1.86029 3.98617 1.71956 3.959 1.578L3.943 1.478L4.932 1.323L4.947 1.423C4.954 1.463 4.989 1.677 5.073 2H10V7.014C10.152 7.038 10.299 7.068 10.46 7.081L10.56 7.089L10.481 8.085ZM10.46 7.081L10.56 7.089L10.481 8.085L10.381 8.077C10.248 8.067 10.129 8.038 10 8.021C5.759 7.455 4.385 3.332 4.053 2C4.01752 1.86029 3.98617 1.71956 3.959 1.578L3.943 1.478L4.932 1.323L4.947 1.423C4.954 1.463 4.989 1.677 5.073 2C5.42 3.328 6.603 6.488 10 7.014C10.152 7.038 10.299 7.068 10.46 7.081ZM5.956 10C5.975 10.067 5.999 10.13 6.014 10.2H4.981C4.958 10.129 4.919 10.069 4.892 10C4.29119 8.7683 3.26348 7.79673 2 7.266C1.96425 7.2501 1.92824 7.23476 1.892 7.22L1.799 7.185L1.633 6.056L2.244 6.285C2.384 6.337 5.239 7.453 5.956 10ZM23 1H13V11H23V1ZM22 2V8H18V7H20V5H21V2H22ZM19 5V6H14V4H17V5H19ZM20 2V4H18V2H20ZM14 2H17V3H14V2ZM14 10V7H17V9H22V10H14ZM1 23H11V13H1V23ZM2 22V20.386C2.45629 20.3323 2.90022 20.2017 3.313 20C3.65981 19.6058 3.87023 19.1103 3.913 18.587C4.038 17.367 4.273 16.992 5.563 17.001C6.30363 16.9713 6.99861 17.3585 7.363 18.004C8.373 18.883 8.915 19.286 9.655 19.052C9.76839 19.0188 9.88358 18.9921 10 18.972V22H2ZM10 14V17.937C9.78278 17.9828 9.5673 18.0365 9.354 18.098C8.853 18.257 8.589 17.851 7.826 17.108C7.29573 16.42 6.47046 16.0244 5.602 16.042C4.67359 15.923 3.75502 16.3246 3.212 17.087C2.906 17.54 3.222 18.335 2.712 19.125C2.50073 19.2622 2.25161 19.3294 2 19.317V14H10Z" fill="#6A6A6A"/>
</svg>
