<svg width="16" height="16" viewBox="0 0 16 16" fill="none" xmlns="http://www.w3.org/2000/svg">
<path d="M13 2H3C2.73478 2 2.48043 2.10536 2.29289 2.29289C2.10536 2.48043 2 2.73478 2 3V13C2 13.2652 2.10536 13.5196 2.29289 13.7071C2.48043 13.8946 2.73478 14 3 14H13C13.2652 14 13.5196 13.8946 13.7071 13.7071C13.8946 13.5196 14 13.2652 14 13V3C14 2.73478 13.8946 2.48043 13.7071 2.29289C13.5196 2.10536 13.2652 2 13 2ZM3 13V3H5.163C5.169 3.684 5.221 4.574 5.42 5.302C5.887 7.022 6.396 7.504 6.935 8.015C7.255 8.318 7.588 8.632 7.955 9.29C8.325 9.954 8.381 10.423 8.447 10.965C8.517 11.53 8.602 12.146 9.035 13H3ZM13 13H9.945C9.398 12.07 9.315 11.459 9.242 10.867C9.172 10.294 9.099 9.702 8.653 8.901C8.632 8.863 8.611 8.837 8.591 8.801C8.822 8.413 9.514 7.449 10.941 6.896C11.6041 6.64505 12.2957 6.47711 13 6.396V13ZM13 5.592C12.1967 5.67684 11.4076 5.86437 10.652 6.15C9.289 6.678 8.502 7.525 8.104 8.085C7.91231 7.85485 7.70588 7.63739 7.486 7.434C6.99 6.964 6.6 6.596 6.191 5.092C6.016 4.449 5.97 3.634 5.963 3H13V5.592Z" fill="#5932EA"/>
</svg>
