<svg width="32" height="32" viewBox="0 0 32 32" fill="none" xmlns="http://www.w3.org/2000/svg">
<path d="M27 4H5.99998C5.46972 4.00027 4.96127 4.2111 4.58641 4.58614C4.21155 4.96118 4.00098 5.46974 4.00098 6V27C4.00098 27.5303 4.21155 28.0388 4.58641 28.4139C4.96127 28.7889 5.46972 28.9997 5.99998 29H27C27.5304 29 28.0391 28.7893 28.4142 28.4142C28.7893 28.0391 29 27.5304 29 27V6C29 5.46957 28.7893 4.96086 28.4142 4.58579C28.0391 4.21071 27.5304 4 27 4ZM5.99998 28C5.73476 28 5.48041 27.8946 5.29287 27.7071C5.10533 27.5196 4.99998 27.2652 4.99998 27V6C4.99998 5.73478 5.10533 5.48043 5.29287 5.29289C5.48041 5.10536 5.73476 5 5.99998 5H11.283C11.324 6.31 11.455 7.829 11.803 9.105C12.775 12.68 13.826 13.674 14.94 14.725C15.654 15.401 16.393 16.101 17.216 17.58C18.055 19.089 18.19 20.19 18.333 21.353C18.545 23.08 18.777 24.863 21.037 28H5.99998ZM28 27C28 27.2652 27.8946 27.5196 27.7071 27.7071C27.5195 27.8946 27.2652 28 27 28H22.027C19.56 24.722 19.337 22.961 19.127 21.256C18.98 20.066 18.83 18.836 17.915 17.191C17.8302 17.0403 17.7425 16.8913 17.652 16.744C18.035 16.046 19.587 13.575 23.074 12.224C24.802 11.556 26.535 11.239 28 11.087V27ZM22.785 11.478C19.486 12.757 17.812 14.935 17.158 15.996C16.563 15.165 16.001 14.629 15.488 14.144C14.415 13.13 13.488 12.253 12.574 8.894C12.251 7.707 12.126 6.259 12.086 5H27C27.2652 5 27.5195 5.10536 27.7071 5.29289C27.8946 5.48043 28 5.73478 28 6V10.277C26.468 10.431 24.637 10.761 22.785 11.478Z" fill="#6A6A6A"/>
</svg>
