<svg width="22" height="24" viewBox="0 0 22 24" fill="none" xmlns="http://www.w3.org/2000/svg">
<path fill-rule="evenodd" clip-rule="evenodd" d="M3.00001 11C4.10458 11 5.00001 10.1046 5.00001 9C5.00001 7.89543 4.10458 7 3.00001 7C1.89544 7 1.00001 7.89543 1.00001 9C1.00001 10.1046 1.89544 11 3.00001 11ZM3.00001 8C3.5523 8 4.00001 8.44772 4.00001 9C4.00001 9.55229 3.5523 10 3.00001 10C2.44773 10 2.00001 9.55229 2.00001 9C2.00001 8.44772 2.44773 8 3.00001 8ZM8.00001 3H21V4H8.00001V3ZM8.00001 9H21V10H8.00001V9ZM8.00001 15H21V16H8.00001V15ZM8.00001 21H21V22H8.00001V21ZM0.937012 23H5.06301L3.00001 19.209L0.937012 23ZM5.00001 1H1.00001V5H5.00001V1ZM4.00001 4H2.00001V2H4.00001V4ZM5.00001 13H1.00001V17H5.00001V13ZM4.00001 16H2.00001V14H4.00001V16Z" fill="black" stroke="black" stroke-width="0.15"/>
</svg>
