<svg width="22" height="24" xmlns="http://www.w3.org/2000/svg" viewBox="0 0 22 24" fill="currentColor"><path d="M2.32,10.3c1.19,0,2.15-.96,2.15-2.15s-.96-2.15-2.15-2.15S.17,6.96.17,8.15s.96,2.15,2.15,2.15ZM2.32,7.3c.47,0,.85.38.85.85s-.38.85-.85.85-.85-.38-.85-.85.38-.85.85-.85Z"/><path d="M4.47,12H.17v4.3h4.3v-4.3ZM3.17,15h-1.7v-1.7h1.7v1.7Z"/><path d="M4.47,0H.17v4.3h4.3V0ZM3.17,3h-1.7v-1.7h1.7v1.7Z"/><rect x="7.17" y="2" width="13.3" height="1.3"/><rect x="7.17" y="8" width="13.3" height="1.3"/><rect x="7.17" y="20" width="13.3" height="1.3"/><rect x="7.17" y="14" width="13.3" height="1.3"/><polygon points="0 22.3 4.63 22.3 2.32 18.05 0 22.3"/></svg>